# xmcd
#
# Track frame offsets:
#	182
#	16447
#	35782
#	59067
#	82345
#	95717
#	115037
#	131007
#	148707
#	162675
#	174525
#	195657
#	217722
#	234962
#	252022
#	269060
#	287507
#
# Disc length: 4157 seconds
#
# Revision: 0
# Processed by: cddbd v1.4PL0 Copyright (c) Steve Scherf et al.
# Submitted via: MusicManager 7.0.3.0 
#
DISCID=04103b11
DTITLE=Cowdrey, Lewis - Lewis Cowdrey
DYEAR=1992
DGENRE=blues
TTITLE0=Check it out on me
TTITLE1=Charmed life
TTITLE2=Lay another log on the fire
TTITLE3=Holiday in Zanzibar
TTITLE4=Don't let my baby ride
TTITLE5=Yonder's wall
TTITLE6=Bloody tears
TTITLE7=Blues with W.C.
TTITLE8=Like this right here
TTITLE9=The kind of blues
TTITLE10=Sleep away
TTITLE11=From my angle
TTITLE12=I got to find my baby
TTITLE13=Storm thing
TTITLE14=We're gonna make it
TTITLE15=Dying day
TTITLE16=Coming home baby
EXTD=
EXTT0=
EXTT1=
EXTT2=
EXTT3=
EXTT4=
EXTT5=
EXTT6=
EXTT7=
EXTT8=
EXTT9=
EXTT10=
EXTT11=
EXTT12=
EXTT13=
EXTT14=
EXTT15=
EXTT16=
PLAYORDER=
